<svg xmlns="http://www.w3.org/2000/svg" width="35" height="35" viewBox="0 0 35 35" fill="none">
    <g clip-path="url(#clip0_114_108)">
    <path d="M23.3333 15.3125C23.3333 16.52 22.3533 17.5 21.1458 17.5C19.9383 17.5 18.9583 16.52 18.9583 15.3125C18.9583 14.105 19.9383 13.125 21.1458 13.125C22.3533 13.125 23.3333 14.105 23.3333 15.3125ZM13.8542 13.125C12.6467 13.125 11.6667 14.105 11.6667 15.3125C11.6667 16.52 12.6467 17.5 13.8542 17.5C15.0617 17.5 16.0417 16.52 16.0417 15.3125C16.0417 14.105 15.0617 13.125 13.8542 13.125ZM35 14.5833C35 15.3898 34.3467 16.0417 33.5417 16.0417H32.0833V23.3333C32.0833 26.5504 29.4671 29.1667 26.25 29.1667H25.0075L19.3973 33.8042C18.8694 34.2738 18.1942 34.5115 17.5131 34.5115C16.819 34.5115 16.119 34.265 15.5619 33.7692L10.096 29.1667H8.75C5.53292 29.1667 2.91667 26.5504 2.91667 23.3333V16.0417H1.45833C0.653333 16.0417 0 15.3898 0 14.5833C0 13.7769 0.653333 13.125 1.45833 13.125H2.91667V5.83333C2.91667 2.61625 5.53292 0 8.75 0H26.25C29.4671 0 32.0833 2.61625 32.0833 5.83333V13.125H33.5417C34.3467 13.125 35 13.7769 35 14.5833ZM26.25 11.6667C26.25 10.0552 24.9448 8.75 23.3333 8.75H11.6667C10.0552 8.75 8.75 10.0552 8.75 11.6667V18.9583C8.75 20.5698 10.0552 21.875 11.6667 21.875H23.3333C24.9448 21.875 26.25 20.5698 26.25 18.9583V11.6667Z" fill="white"/>
    </g>
    <defs>
    <clipPath id="clip0_114_108">
    <rect width="35" height="35" fill="white"/>
    </clipPath>
    </defs>
    </svg>