<svg width="126" height="127" viewBox="0 0 146 157" fill="none" xmlns="http://www.w3.org/2000/svg">
    <g opacity="0.69">
    <path d="M0.157464 80.7948C0.314928 79.5391 0.472392 78.2833 0.944784 77.1845C1.10225 77.0276 1.10225 76.8706 1.25971 76.5567C2.2045 77.4985 2.99182 78.4403 3.62167 79.5391C5.19631 81.7366 6.61349 84.0912 6.92842 86.9166C7.24334 88.8002 7.08588 90.5269 6.1411 92.4105C5.35378 90.056 4.40899 87.8584 3.62167 85.6609H3.46421C3.9366 87.5445 4.40899 89.4281 5.03885 91.3117C5.19631 91.9396 5.03885 92.5675 4.72392 93.3523C3.77914 91.9396 2.83435 90.5269 2.04703 89.1142C1.10225 87.2306 0.314928 85.5039 0.157464 83.4633C0.157464 83.3063 0.157464 83.3063 0 83.3063L0.157464 80.7948ZM126.286 26.3267C129.278 26.9545 132.112 27.5824 134.947 28.2103C136.364 28.5242 137.781 28.6812 139.198 28.9951C139.513 29.1521 139.985 29.9369 139.828 30.2509C139.671 30.5648 139.356 30.4078 139.198 30.4078C138.411 30.4078 138.411 30.4078 138.568 31.1927C140.458 37.6284 142.19 44.0641 144.08 50.4999C144.237 51.2847 144.552 51.4417 145.182 51.2847C146.127 51.2847 146.127 51.4417 145.812 52.2265C145.339 53.6392 144.394 54.581 143.292 55.3659C140.93 56.9356 138.411 57.4065 135.576 57.2495C133.372 57.2495 131.167 56.6216 129.278 55.3659C128.176 54.581 127.231 53.4823 126.916 52.0695C126.759 51.4417 126.759 51.2847 127.546 51.2847C128.176 51.4417 128.333 51.1277 128.491 50.6568C130.695 44.0641 132.9 37.6284 134.947 31.1927C135.262 30.4078 135.262 30.4078 134.474 30.4078H115.893C115.106 30.4078 115.106 30.4078 115.421 31.1927L121.09 50.9708C121.247 51.5986 121.405 51.9126 122.035 51.7556C122.507 51.5986 122.507 51.9126 122.507 52.3835C122.035 53.9532 120.932 55.0519 119.515 55.9938C117.311 57.4065 114.634 57.8774 111.957 57.7204C109.91 57.5634 107.863 57.0925 105.973 55.8368C104.871 55.0519 103.926 54.1101 103.454 52.6974C103.296 51.7556 103.296 51.7556 104.084 51.7556C104.871 51.7556 105.028 51.5986 105.343 50.9708C106.918 45.7908 108.65 40.6108 110.382 35.4308V35.1169C110.067 34.9599 110.067 35.1169 109.91 35.2739C107.705 37.3145 105.186 39.0411 102.509 40.2969C101.407 40.9248 100.619 40.9248 99.5172 40.6108C95.1082 39.669 90.6993 38.2563 86.2903 37.0005C85.8179 36.8436 85.188 36.6866 84.7156 36.5296C85.5029 38.5702 84.7156 40.4538 84.2432 42.3375C83.4559 45.0059 83.4559 47.6744 83.7708 50.4999C83.7708 51.2847 83.4559 51.9126 83.2984 52.6974C83.141 53.6392 83.141 54.581 82.8261 55.5229C82.5111 56.3077 82.1962 56.9356 81.2514 57.0925C80.9365 57.0925 80.9365 57.2495 80.9365 57.5634C81.2514 58.3483 81.4089 59.1331 82.0387 59.918C83.6134 62.2725 84.4007 64.941 84.8731 67.7664C85.9753 73.2603 85.9753 78.7542 85.8179 84.4051C85.5029 90.3699 84.7156 96.4917 83.9283 102.457C82.9835 108.578 82.0387 114.857 81.0939 120.979C80.779 122.862 80.4641 124.746 80.3066 126.63C80.1492 127.415 80.6216 128.199 80.779 129.141C81.0939 131.496 81.7238 133.85 81.5663 136.205C81.5663 136.833 81.5663 137.304 81.4089 137.931C81.2514 138.088 81.2514 138.245 81.4089 138.402L81.8813 138.873C82.1962 139.658 82.1962 140.129 81.5663 140.757C81.0939 141.228 80.4641 141.542 79.6768 141.542C77.9447 141.542 76.2126 141.228 74.6379 140.6C74.4805 140.6 74.1655 140.443 74.0081 140.443C70.8588 140.129 67.7095 140.286 64.8752 142.013C63.7729 142.641 62.3557 143.111 60.9386 143.268C60.1512 143.268 59.6788 143.111 59.3639 142.17C59.2065 142.013 59.049 142.013 58.8915 141.856C58.5766 141.699 58.2617 141.542 58.1042 141.228C57.3169 140.757 57.1594 140.286 57.7893 139.501C58.4191 138.559 58.4191 137.618 58.5766 136.519C58.5766 135.106 58.7341 133.85 58.7341 132.438C58.7341 131.967 58.7341 131.496 58.4191 131.182L35.9018 89.5851C34.6421 87.0736 33.2249 84.7191 31.9652 82.3645C31.8077 81.8936 31.6503 81.8936 31.1779 82.0506C29.2883 82.9924 27.3987 83.9342 25.3517 84.7191C25.1942 84.876 24.8793 85.19 24.5644 84.876C24.4069 84.5621 24.2495 84.4051 24.5644 84.0912C26.4539 82.2076 28.1861 80.3239 29.9182 78.5973C30.3905 78.1264 30.3905 77.8124 30.0756 77.4985C29.9182 77.3415 29.9182 77.1845 29.9182 77.0276C29.7607 76.5567 29.4458 76.3997 28.9734 76.8706C28.8159 77.0276 28.6584 77.0276 28.3435 77.0276C26.9263 76.8706 25.3517 75.6149 24.8793 74.2021V73.5743C25.5092 72.6325 25.1942 71.6906 25.0368 70.9058C25.0368 70.4349 25.0368 70.1209 25.3517 69.964C25.8241 69.65 25.8241 69.1791 25.5092 68.7082C25.0368 67.9234 24.7218 67.1385 24.2495 66.3537C24.092 65.7258 23.6196 65.4119 22.9897 65.2549C21.73 65.0979 21.8875 65.2549 22.045 63.9992C22.6748 61.1737 24.5644 60.5459 27.0838 61.1737C27.3987 61.3307 27.3987 61.4877 27.3987 61.6446C27.0838 63.5283 28.1861 64.941 28.9734 66.5107C29.1308 66.6676 29.2883 66.6676 29.4458 66.5107L32.2801 65.0979C32.7525 64.784 32.91 64.3131 33.2249 63.8422C33.3824 63.6852 33.5398 63.3713 33.6973 63.0574C35.9018 57.4065 39.8384 52.6974 43.1451 47.6744C43.9324 46.5756 44.2474 45.1629 44.8772 43.9072C47.3967 38.5702 50.231 33.2333 53.3803 28.2103C54.64 26.3267 56.5296 25.5418 58.5766 25.3848C60.6236 25.2279 62.1983 24.6 63.458 23.0303C64.2453 22.2455 64.4028 21.3037 64.7177 20.2049C64.7177 20.0479 64.7177 19.8909 64.4028 19.8909C63.7729 19.734 62.9856 19.577 62.3557 19.42C61.8833 19.1061 61.5684 18.9491 61.2535 18.4782L61.096 18.3212C59.3639 17.8503 59.3639 16.2807 59.2065 14.8679C59.049 13.9261 59.3639 12.9843 59.3639 11.8855C59.5214 10.3158 59.6788 8.74615 59.2065 7.17646C59.049 6.86253 59.2065 6.54859 59.3639 6.23465C59.9938 5.29284 60.4662 4.35102 61.096 3.56618C62.3557 2.4674 63.6154 1.05468 65.1901 0.269836C66.2923 -0.201071 67.2371 0.112867 68.3394 0.583773C68.6543 0.740742 68.8118 0.740742 69.2841 0.583773C71.6461 -0.515008 73.6931 -0.0441017 75.5827 1.83952C76.2126 2.62437 76.9999 3.56618 77.6297 4.35102C78.5745 5.60678 78.8895 7.01949 78.4171 8.58918C78.2596 8.58918 78.2596 8.74615 78.2596 8.74615C77.6297 9.84493 77.6297 10.9437 78.5745 11.8855C78.8895 12.0425 78.8895 12.3564 78.732 12.6704C78.5745 14.0831 78.5745 15.6528 77.7872 17.0655C77.6297 17.8503 77.4723 18.4782 76.8424 18.7922C75.8976 19.2631 75.1103 19.42 74.1655 19.42C73.0633 19.42 72.9058 19.577 73.2207 20.6758C73.3782 21.3037 73.8506 21.7746 74.323 22.2455C75.5827 23.8152 77.3148 24.2861 79.2044 24.6C81.2514 25.0709 83.2984 25.6988 85.3455 26.1697C86.1328 26.3267 86.7627 26.6406 87.3925 27.2685C88.1798 27.8963 89.1246 28.5242 89.9119 29.1521C91.0142 30.2509 92.5888 30.4078 93.8485 31.0357C95.8956 31.8206 98.1001 32.6054 100.147 33.3903C100.462 33.5472 100.777 33.5472 101.249 33.3903C104.871 31.3497 108.493 29.3091 111.957 26.9545C112.429 26.4836 112.902 26.0127 113.374 25.3848C114.004 24.6 114.634 23.8152 115.421 23.0303C116.366 22.0885 117.468 21.3037 118.885 21.1467C119.358 20.9897 119.988 20.8327 120.46 20.6758C120.932 20.3618 121.247 20.5188 121.562 20.8327C121.877 20.9897 122.192 21.1467 122.35 21.3037C123.609 22.5594 125.026 23.6582 126.444 24.6L126.916 25.0709C127.546 25.6988 127.546 26.0127 126.286 26.3267ZM41.413 72.9464C41.8854 73.8882 41.5705 74.5161 40.9406 75.144C39.5235 76.2427 38.2637 77.4985 37.004 78.7542C36.6891 78.9112 36.6891 79.0682 36.8466 79.5391C38.5787 82.6785 40.1533 85.9748 41.8854 89.1142C44.5623 94.6081 47.3967 99.945 50.231 105.439L58.1042 120.665C58.1042 120.822 58.1042 120.979 58.4191 120.979C58.2617 119.88 57.9467 118.781 57.7893 117.683C56.8445 112.503 55.8997 107.166 55.1124 101.829C54.4825 96.6487 54.0101 91.4687 53.6952 86.4457C53.3803 81.1088 53.3803 75.9288 53.8527 70.7488C54.0101 69.65 54.0101 68.5513 54.64 67.4525C56.2146 64.3131 57.7893 61.3307 59.3639 58.1913C59.5214 57.7204 59.6788 57.5634 59.049 57.4065C57.1594 57.0925 56.687 56.1507 57.002 54.4241C57.1594 53.3253 57.4744 52.3835 57.1594 51.2847C56.687 49.558 56.2146 47.8314 55.8997 46.1047L54.9549 42.8084C54.64 43.1223 54.3251 43.4363 54.1676 43.7502C51.4907 47.0465 49.2862 50.4999 46.9243 54.1101C46.7668 54.1101 46.6093 54.2671 46.6093 54.581C46.2944 56.4647 45.1922 58.1913 43.9324 59.761C42.0429 62.2725 39.8384 64.4701 37.7914 66.6676C36.5316 68.2373 35.4294 69.807 35.2719 71.8476C35.1145 72.6325 34.7995 73.5743 34.6421 74.3591C34.4846 74.83 34.3271 75.144 34.0122 75.144C33.8548 75.144 33.5398 75.144 33.6973 75.3009C33.6973 75.6149 33.8548 75.9288 34.1697 76.0858C34.3271 76.3997 34.4846 76.0858 34.6421 76.0858C35.5869 75.6149 36.5316 75.3009 37.4764 74.83C38.8936 74.2021 40.1533 73.5743 41.413 72.9464ZM113.059 51.7556H119.043C119.988 51.7556 119.988 51.7556 119.673 50.9708L115.421 35.9018C114.949 34.489 114.634 33.2333 114.319 31.8206C114.161 31.8206 114.161 31.3497 113.846 31.6636C113.374 32.1345 112.587 32.6054 112.272 33.3903C110.382 39.3551 108.335 45.3199 106.288 51.1277C106.131 51.5986 106.288 51.7556 106.761 51.7556H113.059ZM136.364 51.2847H142.347C142.977 51.2847 142.977 51.1277 142.82 50.6568L137.151 30.8788C137.151 30.7218 137.151 30.4078 136.836 30.4078C136.364 30.4078 136.364 30.7218 136.364 30.8788C134.159 37.4714 131.955 44.0641 129.908 50.8138C129.593 51.2847 129.75 51.2847 130.223 51.2847H136.364ZM64.4028 132.595L71.4886 131.81C71.961 131.81 71.961 131.496 72.1185 131.182C74.0081 126.63 75.4252 121.764 76.5275 116.898C77.6297 112.032 78.4171 107.166 78.8895 102.3C79.3618 98.8462 79.6768 95.3929 79.9917 91.9396C80.1492 88.8002 80.3066 85.6609 80.6216 82.5215C80.9365 77.8124 80.779 73.2603 80.6216 68.7082C80.4641 69.0222 80.4641 69.3361 80.4641 69.65C80.3066 73.4173 80.1492 77.3415 79.9917 81.1088C79.8342 85.3469 79.5193 89.5851 79.2044 93.8232C78.732 98.2184 78.2596 102.613 77.4723 107.009C76.685 111.718 75.5827 116.27 73.8506 120.665C71.8036 125.531 69.2841 129.926 64.4028 132.595ZM69.914 7.33343H69.1267C66.1349 7.17646 63.3005 7.64737 60.4662 8.74615C60.1512 8.90312 59.8363 8.90312 59.8363 9.21706C59.6788 9.84493 59.6788 10.4728 59.5214 11.1007C59.5214 11.4146 59.6788 11.5716 59.9938 11.4146C61.411 11.1007 62.8281 10.9437 64.2453 10.7867C68.3394 10.6298 72.276 10.6298 76.2126 11.1007C76.37 11.1007 76.5275 11.2577 76.685 11.1007C76.685 10.6298 76.8424 10.3158 76.8424 9.84493C76.8424 9.531 76.5275 9.531 76.2126 9.531C74.323 8.74615 72.276 8.43221 70.2289 8.11828C72.276 8.11828 74.323 8.27524 76.2126 9.06009C76.9999 9.37403 76.9999 9.37403 77.1573 8.43221C77.4723 7.80434 77.1573 7.80434 76.685 7.64737C75.8976 7.33343 75.1103 7.17646 74.323 6.86253C69.5991 5.29284 64.8752 5.60678 60.3087 7.64737C59.9938 7.64737 59.6788 7.80434 59.8363 8.11828C59.9938 8.43221 60.3087 8.11828 60.4662 8.11828C63.3005 7.17646 66.1349 6.86253 69.1267 7.01949C69.4416 7.17646 69.5991 7.01949 69.914 7.33343ZM59.9938 50.6568V50.9708C59.9938 52.2265 60.4662 53.4823 60.4662 54.738C60.4662 54.895 60.6236 54.895 60.7811 54.895C62.5132 55.2089 64.0878 55.8368 65.6625 56.1507C66.4498 56.3077 67.2371 56.4647 68.0244 56.1507C72.4334 53.9532 75.8976 50.6568 78.4171 46.4187C80.4641 42.6514 81.8813 38.5702 82.9835 34.3321C83.141 33.2333 83.4559 31.9775 83.7708 30.8788C83.6134 31.0357 83.4559 31.3497 83.4559 31.5066C81.8813 36.5296 80.1492 41.3957 76.9999 45.7908C74.323 49.558 71.0163 52.6974 66.4498 54.2671C65.9774 54.581 65.505 54.4241 65.0326 54.2671C63.1431 53.3253 61.5684 52.2265 59.9938 50.6568ZM59.049 130.24C59.049 128.827 58.4191 127.572 57.7893 126.473C52.1206 114.543 46.4519 102.77 40.7832 90.9978C39.2085 87.5445 37.4764 84.0912 35.9018 80.6379C35.7443 80.4809 35.7443 80.3239 35.5869 80.3239C35.1145 80.167 34.6421 80.9518 34.7995 81.4227C37.4764 86.7597 39.9959 91.9396 42.6727 97.2766C47.2392 106.538 51.9631 115.799 56.5296 125.06C57.3169 126.787 58.2617 128.513 59.049 130.24ZM81.4089 28.8382L80.4641 29.466C75.8976 32.2915 71.0163 33.7042 65.505 32.9193C62.0408 32.4484 58.8915 31.0357 56.5296 28.5242C56.2146 28.2103 56.0572 27.5824 55.7422 27.5824C55.4273 27.4254 54.9549 27.8963 54.64 28.2103C53.6952 28.6812 53.6952 28.6812 54.4825 29.623C57.3169 33.0763 61.2535 34.489 65.6625 34.489C69.914 34.646 73.8506 33.7042 77.4723 31.6636C78.8895 30.8788 80.3066 30.0939 81.4089 28.8382ZM69.4416 120.822C68.9692 120.665 68.6543 120.665 68.1819 120.822C66.9222 120.979 65.6625 121.293 64.4028 121.607C63.9304 121.607 63.6154 121.607 63.3005 121.136C62.6707 119.88 62.0408 118.624 61.5684 117.212C59.9938 113.287 59.2065 109.049 58.4191 104.811L57.3169 99.4741C57.1594 99.7881 57.1594 99.945 57.1594 100.102C57.6318 103.869 58.1042 107.636 58.8915 111.404C59.8363 116.113 61.2535 120.665 63.3005 125.06C63.458 125.374 63.6154 125.531 63.9304 125.374C66.1349 124.275 68.0244 122.706 69.4416 120.822ZM58.1042 62.7434C59.2065 64.627 60.1512 66.6676 61.411 68.3943C62.3557 69.807 63.6154 71.0628 65.0326 72.1615C65.505 72.3185 65.6625 72.3185 65.9774 72.0046C67.2371 70.9058 68.4968 69.964 69.7565 68.8652C71.1737 67.7664 72.276 66.1967 73.3782 64.784C73.2207 64.941 73.0633 64.941 72.9058 65.0979C71.4886 66.3537 70.0715 67.4525 68.8118 68.7082C68.1819 69.3361 67.867 69.3361 67.2371 68.8652C64.5602 66.9816 61.7259 65.4119 59.049 63.3713L58.1042 62.7434ZM79.8342 135.42C79.8342 135.106 79.6768 134.792 79.5193 134.478L78.5745 132.595C77.7872 131.653 77.7872 130.554 77.9447 129.298C78.732 125.06 79.8342 120.822 80.4641 116.584C80.6216 115.328 80.779 114.229 80.779 113.13C80.4641 114.229 80.1492 115.328 79.9917 116.427C78.8895 121.921 77.3148 127.258 74.7954 132.281C74.6379 132.908 74.7954 133.065 75.2678 133.065C76.9999 133.379 78.5745 133.85 79.6768 135.42H79.8342ZM81.0939 45.7908C80.3066 50.9708 76.685 53.4823 72.4334 55.3659C73.3782 55.5229 74.323 55.5229 75.2678 55.6798C76.0551 55.6798 76.5275 55.3659 77.1573 54.895C79.3618 52.8544 80.4641 50.3429 80.9365 47.5174C80.9365 47.0465 81.2514 46.4187 81.0939 45.7908ZM118.255 27.7394L119.988 27.2685C119.358 27.2685 118.728 27.1115 118.255 27.7394ZM89.7545 141.542C88.6522 142.798 87.3925 144.053 86.2903 145.466C85.6604 146.094 84.8731 146.722 83.9283 146.408C84.2432 145.152 84.8731 143.896 85.5029 142.641C86.6052 140.286 88.0224 138.088 90.2269 136.519C91.8015 135.42 93.6911 134.949 95.5806 134.635C95.8956 134.635 96.2105 134.478 96.053 135.106C95.4232 138.088 94.4784 141.071 92.5888 143.582C91.1716 145.466 89.2821 146.879 86.9201 147.507C87.8649 147.664 88.8097 147.977 89.7545 148.291C92.1164 149.076 94.3209 150.332 96.2105 151.745C96.6829 152.059 96.5254 152.216 96.2105 152.373C93.6911 154.413 90.6993 155.512 87.3925 155.198C85.0305 155.041 82.9835 154.256 80.779 153.314C79.9917 153 79.2044 152.53 78.4171 152.216C78.2596 152.373 78.4171 152.53 78.4171 152.844V154.57C78.4171 155.826 77.4723 156.454 76.37 155.826C75.8976 155.669 75.8976 155.041 75.8976 154.57V148.448V146.408C75.8976 145.152 76.8424 144.681 77.9447 145.152C78.4171 145.309 78.4171 145.937 78.4171 146.408V152.059C79.3618 150.646 80.779 151.117 81.8813 151.117C83.2984 151.274 84.8731 151.431 86.2903 151.431H86.9201C84.2432 150.96 81.5663 150.332 78.8895 149.861C80.4641 148.448 82.1962 147.664 84.2432 147.507C85.3455 147.507 85.9753 147.193 86.4477 146.251C87.55 144.681 88.8097 143.111 89.9119 141.542H89.7545ZM53.2228 151.431C54.9549 151.431 56.5296 151.274 58.1042 151.117C58.8915 151.117 59.6788 151.117 60.4662 150.96C60.7811 150.96 60.9386 151.274 61.411 151.431V148.762V146.879C61.411 145.466 61.8833 145.152 63.3005 145.309C63.7729 145.466 63.9304 145.937 63.9304 146.251C64.0878 146.879 63.9304 147.35 63.9304 147.977V154.884C63.9304 155.826 63.7729 156.14 62.9856 156.14C61.7259 156.14 61.411 155.983 61.411 154.884V152.373C60.7811 152.687 60.1512 152.844 59.6788 153.157C57.6318 153.942 55.7422 154.727 53.5378 155.041C50.5459 155.512 47.869 154.884 45.1922 153.157C44.8772 153 44.4048 152.53 43.9324 152.216C43.6175 152.059 43.6175 151.902 43.9324 151.745C46.6093 149.704 49.4437 148.134 52.9079 147.664C53.0654 147.507 53.2228 147.664 53.3803 147.35C49.2862 146.408 47.2392 143.268 45.6646 139.815C44.8772 138.402 44.5623 136.833 44.0899 135.263C43.9324 134.635 44.2474 134.478 44.7198 134.635C47.869 135.106 50.5459 136.362 52.4355 138.873C54.1676 141.228 55.2699 143.739 56.3721 146.408C55.4273 146.565 54.7975 146.408 54.1676 145.623C52.9079 144.053 51.6482 142.798 50.3885 141.385C50.231 141.542 50.3885 141.699 50.5459 141.856C51.8056 143.582 53.0654 145.309 54.1676 147.036C54.4825 147.35 54.64 147.35 55.1124 147.507C57.002 147.507 58.8915 147.977 60.4662 149.233C60.7811 149.39 60.9386 149.547 61.2535 149.861C58.5766 150.332 55.8997 150.803 53.2228 151.431ZM130.853 101.201C132.585 97.4335 135.419 94.7651 138.726 92.5675C138.883 92.4105 139.041 92.2536 139.356 92.2536C139.513 92.4105 139.356 92.7245 139.513 93.0384C140.143 98.5323 137.781 102.77 134.002 106.538C133.215 107.323 132.427 108.264 131.482 109.049C131.167 108.107 131.325 107.323 131.797 106.381C132.742 104.654 133.687 102.77 134.632 101.044L132.585 103.869C131.797 104.968 131.167 106.067 130.38 107.009C129.908 107.48 129.435 108.264 128.963 108.892C128.491 106.538 128.176 104.34 127.703 102.143H127.546C127.703 103.241 127.703 104.497 127.861 105.596C127.861 106.381 127.861 107.166 128.018 107.95C128.176 108.735 127.703 109.206 127.388 109.677C127.231 109.834 127.073 109.834 127.073 109.677C125.341 105.91 123.767 101.986 125.026 97.7475C125.499 96.3347 126.129 95.079 126.916 93.8232C127.231 93.3523 127.388 93.5093 127.546 93.8232C129.12 96.0208 130.223 98.2184 130.695 100.73C130.695 100.887 130.695 100.887 130.853 101.201ZM12.912 109.991C12.4397 109.363 12.2822 108.735 12.2822 107.793C12.4397 105.91 12.4397 104.026 12.5971 102.143L11.3374 108.892C11.1799 108.892 11.0225 108.735 11.0225 108.735C9.29037 106.538 7.8732 104.183 6.29856 101.829C6.1411 101.672 5.98363 101.515 5.6687 101.358L6.29856 102.457C7.08588 104.026 7.8732 105.596 8.81798 107.166C9.13291 107.793 8.81798 108.264 8.81798 109.049C8.50305 108.892 8.18813 108.578 8.03066 108.264C6.1411 106.538 4.40899 104.811 2.99182 102.77C0.944784 99.6311 0.314928 96.1778 0.78732 92.5675C0.78732 92.0966 1.10225 92.2536 1.25971 92.4105C4.56646 94.6081 7.40081 97.2766 9.13291 100.887C9.29037 100.887 9.29037 101.044 9.44784 101.201C9.92023 98.2184 11.1799 95.8638 12.912 93.5093C16.3763 96.8056 16.3763 104.34 12.912 109.991ZM130.853 79.0682L132.27 82.8354C132.585 83.7772 132.585 83.9342 132.112 84.876C127.861 80.6379 126.601 76.7136 128.333 71.2197C129.593 72.0046 130.695 73.1034 131.797 74.5161C130.538 69.807 131.64 65.5689 133.215 61.3307C134.789 63.0574 135.891 64.941 136.521 67.1385C137.151 69.65 136.994 72.3185 136.679 74.987C136.364 76.2427 136.206 77.3415 135.891 78.7542C135.419 78.1264 134.789 77.6555 134.789 76.8706C134.632 74.83 134.474 72.7894 134.159 70.7488V78.1264C133.844 78.1264 133.844 77.8124 133.529 77.8124C134.159 79.696 134.159 81.7366 133.372 83.7772L131.01 78.9112L130.853 79.0682ZM8.03066 85.033C7.71573 84.0912 7.71573 83.4633 8.03066 82.6785C8.50305 81.4227 8.81798 80.167 9.13291 78.9112L6.77095 83.6203C6.29856 82.5215 6.1411 81.4227 6.1411 80.3239C6.1411 79.853 6.29856 79.3821 6.29856 78.9112C6.29856 78.5973 6.61349 78.2833 6.1411 77.9694C5.98363 77.8124 6.1411 77.1845 6.1411 76.8706V70.7488C5.6687 71.5337 5.82617 72.1615 5.82617 72.7894C5.6687 74.0452 5.51124 75.3009 5.51124 76.5567C5.51124 77.3415 5.03885 77.9694 4.40899 78.5973C4.09406 77.3415 3.77914 76.0858 3.62167 74.83C3.30674 72.6325 3.14928 70.4349 3.46421 68.2373C3.9366 65.5689 5.03885 63.3713 6.92842 61.3307C8.66052 65.5689 9.6053 69.807 8.50305 74.2021C8.81798 74.2021 8.81798 74.0452 8.97545 73.8882C9.6053 73.1034 10.2352 72.4755 11.0225 71.8476C11.8098 71.2197 11.8098 71.2197 12.1247 72.1615C13.227 75.9288 12.5971 79.3821 10.0777 82.5215C9.44784 83.3063 8.81798 84.0912 8.03066 85.033ZM112.587 138.559C109.752 139.187 106.918 139.815 103.926 140.443C104.871 138.716 106.288 137.304 107.863 136.362C110.067 134.949 112.429 134.321 114.949 134.007C117.311 133.85 119.83 134.007 122.35 134.478C122.822 134.478 122.822 134.635 122.507 134.949C120.145 139.187 116.523 141.699 111.642 142.484C109.437 142.798 107.076 142.954 104.714 142.954C104.241 142.954 104.084 142.798 104.399 142.484C104.714 141.699 105.186 141.228 106.131 140.914C108.335 140.129 110.382 139.344 112.587 138.559ZM36.0593 140.443C33.2249 139.815 30.548 139.03 27.7137 138.559L32.7525 140.443L34.1697 140.914C34.957 141.071 35.4294 141.699 35.7443 142.484C36.0593 142.798 35.9018 142.954 35.5869 142.954C34.3271 142.954 33.2249 142.954 31.9652 142.798C29.2883 142.641 26.6114 142.327 24.092 141.071C21.2576 139.815 19.2106 137.618 17.636 134.949C17.4785 134.635 17.4785 134.478 17.7934 134.478C22.6748 133.536 27.3987 133.536 31.8077 136.048C33.5398 136.99 34.957 138.245 35.9018 139.972C36.0593 140.129 36.0593 140.286 36.0593 140.443ZM30.0756 145.623C32.4376 144.367 34.7995 143.582 37.319 143.111C39.6809 142.641 42.0429 142.641 44.2474 143.582C45.6646 144.21 46.9243 145.152 47.869 146.408C45.0347 146.565 42.3578 146.565 39.6809 146.722C41.8854 147.036 43.9324 147.193 46.1369 147.35C47.2392 147.507 47.7116 147.977 48.3414 148.762C46.2944 149.39 44.4048 149.861 42.3578 150.175C39.9959 150.489 37.6339 150.489 35.4294 149.547C33.2249 148.762 31.6503 147.35 30.0756 145.623ZM91.959 148.762C92.4314 147.977 93.0612 147.507 94.006 147.35C96.2105 147.35 98.2575 147.036 100.462 146.722C97.7851 146.565 95.1082 146.565 92.2739 146.408C93.3761 144.995 94.7933 144.053 96.368 143.582C99.3598 142.484 102.352 142.798 105.501 143.739C106.918 144.053 108.335 144.681 109.595 145.466C110.067 145.623 110.067 145.78 109.752 146.094C107.863 148.134 105.658 149.704 102.824 150.175C100.462 150.646 98.1001 150.332 95.7381 149.861C94.4784 149.547 93.2187 149.233 91.959 148.762ZM25.0368 129.926C22.5173 128.827 20.1554 127.885 17.7934 126.944L17.636 127.101C18.1084 127.258 18.4233 127.572 18.7382 127.729C20.1554 128.356 21.4151 129.141 22.6748 129.769C23.6196 130.24 24.2495 130.868 24.4069 131.967C23.7771 132.124 23.1472 131.81 22.5173 131.81C19.3681 131.182 16.0613 130.554 13.3844 128.513C10.865 126.944 9.29037 124.432 8.03066 121.607C13.3844 121.607 18.2658 122.235 22.3599 125.845C23.6196 126.944 24.4069 128.356 25.0368 129.926ZM115.736 131.967C115.893 131.025 116.366 130.24 117.311 129.769C119.043 128.984 120.775 128.042 122.35 126.944C119.988 127.885 117.783 128.827 115.264 129.926C115.736 128.513 116.366 127.258 117.311 126.316C119.515 124.118 122.192 122.862 125.026 122.235C127.388 121.764 129.593 121.45 132.112 121.607C131.482 123.176 130.695 124.589 129.75 125.845C127.546 128.67 124.397 130.24 120.932 131.182C119.358 131.496 117.783 131.81 116.208 131.967C116.051 132.124 115.893 131.967 115.736 131.967ZM97.3127 142.013L101.564 135.42C100.934 136.048 100.147 136.833 99.6747 137.618C99.0448 138.402 98.2575 139.03 97.7851 139.815C97.1553 140.757 96.368 141.071 95.2657 141.071C96.053 139.03 96.8403 136.99 97.7851 134.949C98.7299 133.222 99.8322 131.653 101.249 130.24C103.139 128.513 105.501 127.729 108.02 127.258C108.178 127.258 108.335 127.258 108.335 127.572C107.548 131.81 106.288 135.734 103.454 138.873C102.037 140.6 100.147 141.542 98.1001 142.013H97.3127ZM44.8772 141.071C43.9324 141.071 43.1451 140.914 42.5153 140.129C41.2556 138.402 39.8384 136.676 38.4212 135.106C39.8384 137.461 41.2556 139.658 42.8302 142.013C41.413 141.856 40.1533 141.542 39.0511 140.914C36.6891 139.501 35.2719 137.304 34.0122 134.949C32.91 132.595 32.2801 130.24 31.8077 127.729C31.8077 127.415 31.8077 127.258 32.2801 127.258C36.3742 127.885 39.5235 130.083 41.5705 133.693C42.9877 136.048 43.9324 138.559 44.8772 141.071ZM31.1779 133.222C30.3905 132.752 29.7607 132.281 29.6032 131.339C28.8159 129.141 28.0286 127.101 27.3987 124.903C27.8711 127.729 28.501 130.397 29.1308 133.379C28.1861 132.908 27.3987 132.438 26.7689 131.81C25.0368 130.083 24.092 127.885 23.6196 125.531C22.9897 122.078 23.3047 118.781 23.9345 115.328C25.0368 115.956 26.139 116.741 26.9263 117.526C29.4458 119.88 30.548 122.706 31.0204 126.002C31.3353 128.199 31.3353 130.554 31.1779 132.752C31.3353 132.908 31.3353 133.065 31.1779 133.222ZM111.17 133.222C111.642 130.554 112.272 127.885 112.902 125.217L112.744 125.06L112.114 127.258L110.54 131.496C110.225 132.438 110.067 132.595 108.965 133.065C108.808 131.339 108.808 129.612 108.965 127.885C109.123 125.845 109.437 123.961 110.067 122.078C111.17 119.252 113.217 117.212 115.736 115.485C115.893 115.485 116.208 115.171 116.208 115.642C116.996 119.566 117.153 123.49 116.051 127.258C115.264 129.769 113.846 131.81 111.484 133.065C111.484 133.222 111.327 133.379 111.17 133.222ZM15.1165 119.88C13.0695 117.996 11.3374 116.27 9.44784 114.7H9.29037L11.8098 117.526C12.2822 118.153 12.912 118.781 13.5419 119.409C14.1718 120.037 14.1718 120.822 14.1718 121.607C10.2352 119.409 6.45602 117.212 4.25153 113.13C3.30674 111.404 2.83435 109.52 2.67689 107.48C2.67689 107.166 2.83435 107.009 3.14928 107.166C7.08588 108.578 10.7076 110.619 13.227 114.072C14.3292 115.799 15.1165 117.526 15.1165 119.88ZM125.026 119.88C125.026 117.212 126.129 115.171 127.546 113.287C129.593 110.776 134.159 107.95 137.466 107.166C137.309 109.206 136.836 111.09 136.049 112.973C134.632 115.642 132.427 117.683 129.908 119.252C128.648 120.194 127.388 120.979 125.971 121.764C125.971 120.822 126.129 120.037 126.759 119.252C128.018 117.996 129.12 116.741 130.223 115.485C130.38 115.171 130.538 115.014 130.695 114.7L125.026 119.88ZM120.932 121.293C121.405 119.252 121.877 117.055 122.35 115.014H122.192C121.877 116.113 121.405 117.055 121.09 118.153C120.932 118.781 120.617 119.252 120.46 119.88C120.302 120.508 119.83 120.822 119.515 121.136C119.2 121.136 119.043 121.293 119.043 120.979C119.043 117.369 118.885 113.758 120.617 110.462C121.72 108.735 123.137 107.323 124.869 106.224C125.184 105.91 125.341 105.91 125.499 106.381C126.129 110.305 126.286 114.072 124.554 117.839C123.924 119.095 122.979 120.194 121.72 120.979C121.562 121.136 121.247 121.293 120.932 121.293ZM19.2106 121.45C17.321 120.351 16.2188 118.938 15.4315 117.055C14.3292 114.386 14.1718 111.561 14.4867 108.735C14.4867 107.95 14.6442 107.166 14.8016 106.381C14.8016 105.91 14.9591 105.91 15.274 106.224C18.5807 108.107 20.3129 111.09 20.9427 114.7C21.2576 116.741 21.1002 118.781 21.1002 120.665C21.1002 121.293 20.9427 121.293 20.6278 120.979C20.1554 120.665 19.8405 120.351 19.683 119.88C19.0531 117.996 18.4233 116.27 17.7934 114.543C18.2658 116.741 18.7382 118.938 19.2106 121.45ZM138.883 76.5567C139.513 77.9694 139.828 79.2251 139.985 80.6379C140.458 84.2481 139.041 87.3875 137.309 90.5269L135.419 93.3523C135.104 92.5675 134.947 91.9396 135.262 91.1548C135.734 89.2711 136.206 87.3875 136.521 85.5039C135.734 87.7015 134.947 90.056 134.002 92.4105C133.529 91.4687 133.372 90.5269 133.215 89.7421C132.9 86.7597 133.687 84.2481 135.104 81.7366C136.049 79.853 137.309 78.1264 138.883 76.5567ZM10.2352 89.899L7.71573 95.079C6.92842 92.7245 6.92842 90.5269 7.8732 88.3293C8.81798 85.9748 10.3926 84.2481 12.4397 82.8354C12.7546 82.5215 12.912 82.6785 13.0695 82.9924C14.3292 87.3875 13.5419 91.1548 10.5501 94.4511C10.0777 95.079 9.76277 95.5499 9.29037 96.1778H9.13291C8.66052 95.5499 8.66052 94.7651 8.97545 93.9802C9.44784 92.7245 9.92023 91.3117 10.3926 89.899H10.2352ZM132.427 94.922C131.482 93.1954 130.695 91.6257 129.908 89.899V90.056L131.325 94.2942C131.482 94.922 131.482 95.3929 131.167 96.0208C131.167 96.1778 131.01 96.1778 130.853 96.0208C127.231 91.9396 125.499 88.4863 127.231 82.9924C127.231 82.6785 127.388 82.5215 127.703 82.8354C130.38 84.7191 132.27 87.0736 132.9 90.213C133.215 91.6257 132.9 93.6663 132.427 94.922ZM71.1737 151.431V155.512C71.0163 156.611 69.914 157.239 68.9692 156.768C68.6543 156.611 68.4968 156.14 68.4968 155.826V147.036C68.4968 146.251 68.8118 145.937 69.5991 145.937C70.7013 145.937 71.0163 146.094 71.0163 147.036C71.1737 148.448 71.0163 149.861 71.0163 151.431H71.1737ZM65.1901 151.431V147.35C65.1901 146.094 65.8199 145.623 67.0797 145.937C67.3946 146.094 67.552 146.251 67.7095 146.565V156.14C67.552 156.611 67.3946 156.925 66.7647 156.768H66.2923C65.505 156.768 65.1901 156.611 65.1901 155.826V151.431ZM74.6379 150.96V155.198C74.4805 156.297 73.5357 156.768 72.5909 156.297C72.1185 156.14 72.1185 155.669 72.1185 155.198V147.036C72.1185 145.623 72.5909 145.309 74.0081 145.466C74.323 145.623 74.4805 145.78 74.4805 146.094C74.6379 146.408 74.6379 146.722 74.6379 147.036V150.96Z" fill="url(#paint0_linear_188_13132)"/>
    </g>
    <defs>
    <linearGradient id="paint0_linear_188_13132" x1="73" y1="0" x2="73" y2="156.926" gradientUnits="userSpaceOnUse">
    <stop/>
    <stop offset="1" stop-opacity="0"/>
    </linearGradient>
    </defs>
    </svg>
    