<svg xmlns="http://www.w3.org/2000/svg" width="142" height="175" viewBox="0 0 142 175" fill="none">
    <path d="M137 176C139.485 176 141.5 173.985 141.5 171.5C141.5 169.015 139.485 167 137 167V176ZM24 48C37.2548 48 48 37.2548 48 24C48 10.7452 37.2548 0 24 0C10.7452 0 0 10.7452 0 24C0 37.2548 10.7452 48 24 48ZM131.812 167C129.327 167 127.312 169.015 127.312 171.5C127.312 173.985 129.327 176 131.812 176V167ZM121.438 176C123.923 176 125.938 173.985 125.938 171.5C125.938 169.015 123.923 167 121.438 167V176ZM111.062 167C108.577 167 106.562 169.015 106.562 171.5C106.562 173.985 108.577 176 111.062 176V167ZM100.688 176C103.173 176 105.188 173.985 105.188 171.5C105.188 169.015 103.173 167 100.688 167V176ZM90.3125 167C87.8272 167 85.8125 169.015 85.8125 171.5C85.8125 173.985 87.8272 176 90.3125 176V167ZM79.9375 176C82.4228 176 84.4375 173.985 84.4375 171.5C84.4375 169.015 82.4228 167 79.9375 167V176ZM69.5625 167C67.0772 167 65.0625 169.015 65.0625 171.5C65.0625 173.985 67.0772 176 69.5625 176V167ZM59.1875 176C61.6728 176 63.6875 173.985 63.6875 171.5C63.6875 169.015 61.6728 167 59.1875 167V176ZM49.0184 166.515C46.5804 166.032 44.213 167.618 43.7307 170.056C43.2484 172.494 44.8338 174.861 47.2718 175.343L49.0184 166.515ZM34.8281 170.186C36.8933 171.569 39.6883 171.016 41.0709 168.95C42.4535 166.885 41.9002 164.09 39.835 162.708L34.8281 170.186ZM32.7924 155.665C31.4098 153.6 28.6148 153.047 26.5496 154.429C24.4844 155.812 23.9311 158.607 25.3137 160.672L32.7924 155.665ZM20.1566 148.228C20.6389 150.666 23.0063 152.252 25.4443 151.769C27.8824 151.287 29.4678 148.92 28.9855 146.482L20.1566 148.228ZM28.5 135.625C28.5 133.14 26.4853 131.125 24 131.125C21.5147 131.125 19.5 133.14 19.5 135.625H28.5ZM19.5 123.875C19.5 126.36 21.5147 128.375 24 128.375C26.4853 128.375 28.5 126.36 28.5 123.875H19.5ZM28.5 112.125C28.5 109.64 26.4853 107.625 24 107.625C21.5147 107.625 19.5 109.64 19.5 112.125H28.5ZM19.5 100.375C19.5 102.86 21.5147 104.875 24 104.875C26.4853 104.875 28.5 102.86 28.5 100.375H19.5ZM28.5 88.625C28.5 86.1397 26.4853 84.125 24 84.125C21.5147 84.125 19.5 86.1397 19.5 88.625H28.5ZM19.5 76.875C19.5 79.3603 21.5147 81.375 24 81.375C26.4853 81.375 28.5 79.3603 28.5 76.875H19.5ZM28.5 65.125C28.5 62.6397 26.4853 60.625 24 60.625C21.5147 60.625 19.5 62.6397 19.5 65.125H28.5ZM19.5 53.375C19.5 55.8603 21.5147 57.875 24 57.875C26.4853 57.875 28.5 55.8603 28.5 53.375H19.5ZM28.5 41.625C28.5 39.1397 26.4853 37.125 24 37.125C21.5147 37.125 19.5 39.1397 19.5 41.625H28.5ZM19.5 29.875C19.5 32.3603 21.5147 34.375 24 34.375C26.4853 34.375 28.5 32.3603 28.5 29.875H19.5ZM137 167H131.812V176H137V167ZM121.438 167H111.062V176H121.438V167ZM100.688 167H90.3125V176H100.688V167ZM79.9375 167H69.5625V176H79.9375V167ZM59.1875 167H54V176H59.1875V167ZM54 167C52.2912 167 50.626 166.833 49.0184 166.515L47.2718 175.343C49.4515 175.775 51.7017 176 54 176V167ZM39.835 162.708C37.0522 160.845 34.6554 158.448 32.7924 155.665L25.3137 160.672C27.8312 164.432 31.0678 167.669 34.8281 170.186L39.835 162.708ZM28.9855 146.482C28.6674 144.874 28.5 143.209 28.5 141.5H19.5C19.5 143.798 19.7254 146.048 20.1566 148.228L28.9855 146.482ZM28.5 141.5V135.625H19.5V141.5H28.5ZM28.5 123.875L28.5 112.125H19.5L19.5 123.875H28.5ZM28.5 100.375L28.5 88.625H19.5L19.5 100.375H28.5ZM28.5 76.875L28.5 65.125H19.5L19.5 76.875H28.5ZM28.5 53.375L28.5 41.625H19.5L19.5 53.375H28.5ZM28.5 29.875L28.5 24H19.5L19.5 29.875H28.5Z" fill="#C2C2C2"/>
  </svg>