<svg width="35" height="35" viewBox="0 0 35 35" fill="none" xmlns="http://www.w3.org/2000/svg">
    <g clip-path="url(#clip0_209_22)">
    <path d="M11.6667 17.5C16.4923 17.5 20.4167 13.5756 20.4167 8.75C20.4167 3.92438 16.4923 0 11.6667 0C6.84104 0 2.91667 3.92438 2.91667 8.75C2.91667 13.5756 6.84104 17.5 11.6667 17.5ZM11.6667 20.4167C5.23396 20.4167 0 25.6506 0 32.0833V33.5417C0 34.3467 0.653333 35 1.45833 35H21.875C22.68 35 23.3333 34.3467 23.3333 33.5417V32.0833C23.3333 25.6506 18.0994 20.4167 11.6667 20.4167ZM34.5581 14.8998L28.7365 20.5508C27.8892 21.3996 26.7415 21.8735 25.5208 21.8735C24.3002 21.8735 23.1525 21.3981 22.2906 20.5363L19.4163 17.8325C18.83 17.2812 18.8023 16.3581 19.355 15.7704C19.9077 15.1842 20.8294 15.1565 21.4171 15.7092L24.3221 18.4435C25.009 19.129 26.0648 19.0983 26.689 18.4742L32.5252 12.8071C33.1027 12.2456 34.0258 12.2602 34.5873 12.8377C35.1488 13.4152 35.1342 14.3398 34.5567 14.8998H34.5581Z" fill="white"/>
    </g>
    <defs>
    <clipPath id="clip0_209_22">
    <rect width="35" height="35" fill="white"/>
    </clipPath>
    </defs>
    </svg>