<svg xmlns="http://www.w3.org/2000/svg" width="26" height="26" viewBox="0 0 26 26" fill="none">
  <g clip-path="url(#clip0_117_15)">
    <path d="M24.917 11.9167C24.6297 11.9167 24.3541 11.8025 24.151 11.5994C23.9478 11.3962 23.8337 11.1207 23.8337 10.8333C23.8314 8.53551 22.9175 6.33244 21.2927 4.70762C19.6679 3.0828 17.4648 2.16898 15.167 2.16668C14.8797 2.16668 14.6041 2.05254 14.401 1.84938C14.1978 1.64622 14.0837 1.37067 14.0837 1.08335C14.0837 0.79603 14.1978 0.52048 14.401 0.317315C14.6041 0.114151 14.8797 1.42144e-05 15.167 1.42144e-05C18.0392 0.00316844 20.7929 1.14555 22.8238 3.17651C24.8548 5.20747 25.9972 7.96114 26.0003 10.8333C26.0003 11.1207 25.8862 11.3962 25.683 11.5994C25.4799 11.8025 25.2043 11.9167 24.917 11.9167ZM21.667 10.8333C21.667 9.10944 20.9822 7.45614 19.7632 6.23715C18.5442 5.01817 16.8909 4.33335 15.167 4.33335C14.8797 4.33335 14.6041 4.44748 14.401 4.65065C14.1978 4.85381 14.0837 5.12936 14.0837 5.41668C14.0837 5.704 14.1978 5.97955 14.401 6.18271C14.6041 6.38588 14.8797 6.50001 15.167 6.50001C16.3163 6.50001 17.4185 6.95656 18.2311 7.76922C19.0438 8.58188 19.5003 9.68408 19.5003 10.8333C19.5003 11.1207 19.6145 11.3962 19.8176 11.5994C20.0208 11.8025 20.2963 11.9167 20.5837 11.9167C20.871 11.9167 21.1465 11.8025 21.3497 11.5994C21.5529 11.3962 21.667 11.1207 21.667 10.8333ZM24.0319 24.011L25.0177 22.8746C25.6452 22.2451 25.9976 21.3925 25.9976 20.5037C25.9976 19.6149 25.6452 18.7623 25.0177 18.1329C24.9842 18.0993 22.3777 16.094 22.3777 16.094C21.7521 15.4985 20.9211 15.167 20.0575 15.1682C19.1938 15.1694 18.3638 15.5033 17.7399 16.1005L15.6751 17.8403C13.9896 17.1428 12.4585 16.1191 11.1698 14.8282C9.88106 13.5372 8.86005 12.0044 8.1654 10.3177L9.89874 8.25935C10.4964 7.63554 10.8307 6.80538 10.8321 5.94145C10.8336 5.07752 10.502 4.24628 9.90632 3.62051C9.90632 3.62051 7.8989 1.01726 7.86532 0.983681C7.24723 0.361575 6.40919 0.0076214 5.53228 -0.0017031C4.65537 -0.0110276 3.81 0.325025 3.17882 0.933848L1.93299 2.01718C-5.42718 10.556 10.422 26.2828 19.2425 26C20.1332 26.0052 21.0159 25.8318 21.8385 25.4902C22.6611 25.1486 23.4069 24.6456 24.0319 24.011Z" fill="white"/>
  </g>
  <defs>
    <clipPath id="clip0_117_15">
      <rect width="26" height="26" fill="white"/>
    </clipPath>
  </defs>
</svg>